<?xml version="1.0" encoding="UTF-8"?>
<svg width="281px" height="42px" viewBox="0 0 281 42" version="1.1" xmlns="http://www.w3.org/2000/svg" xmlns:xlink="http://www.w3.org/1999/xlink">
    <title>Logo</title>
    <g id="-" stroke="none" stroke-width="1" fill="none" fill-rule="evenodd">
        <g id="Desktop---Home" transform="translate(-586.000000, -30.000000)" fill="#605754" fill-rule="nonzero">
            <g id="Logo" transform="translate(586.000000, 30.000000)">
                <g id="Group" transform="translate(-0.000000, 0.000000)">
                    <path d="M48.3389552,37.25 L48.3389552,37.25 L48.0998507,37.17 L48.4385821,37.26 L48.3389552,37.25 Z M63.8209701,33.72 C61.3745076,34.0931696 58.9622586,34.6650474 56.6079851,35.43 C57.8977015,34.2728094 59.0509452,32.9709704 60.0451119,31.55 C62.211323,28.4355014 63.7511144,24.9265742 64.5781343,21.22 C65.0627497,19.104676 65.6850934,17.0235409 66.4411567,14.99 C68.7126493,8.93 71.0239925,7.47 71.0239925,7.47 C56.4087313,8.8 52.2941418,16.27 52.2941418,16.27 L49.6440672,22.34 L49.4747015,22.74 C49.4747015,22.74 51.7661194,20.8 54.2368657,18.83 L54.5656343,18.62 C55.9466963,17.1879523 57.5646939,16.0071271 59.3477239,15.13 L59.3477239,15.13 C59.5165556,15.0203121 59.696987,14.9297585 59.885709,14.86 L59.885709,14.86 L60.1148507,14.75 C60.8394108,14.4204092 61.581032,14.1299935 62.3365299,13.88 C61.3402612,27.12 55.561903,33.64 51.1384701,36.72 C51.0994762,36.7480567 51.0555246,36.7684181 51.0089552,36.78 C50.3215299,36.95 49.6341045,37.1 48.9466791,37.22 C46.5368513,37.0655768 44.5844036,35.1985364 44.3140299,32.79 C44.302508,32.2249056 44.3358222,31.6597872 44.4136567,31.1 C44.9162923,28.2950394 45.6459869,25.5358946 46.5954851,22.85 L46.7748134,22.31 C46.8744403,21.97 46.9939925,21.64 47.1135448,21.31 C48.0141806,19.0240546 48.7793227,16.6866396 49.4049627,14.31 C50.6801866,8.51 48.219403,3.31 42.9690672,0.13 L42.9690672,0.19 C44.7304316,2.69454004 45.9861126,5.52106126 46.6652239,8.51 C46.8740783,9.53954091 46.9643349,10.5897676 46.9342164,11.64 C46.8142635,13.124375 46.4786204,14.5831529 45.9379478,15.97 C44.5232463,20.14 39.2928358,32.11 41.8034328,37.88 C40.2449834,37.8570516 38.6887445,37.7535813 37.1408955,37.57 C37.4916108,36.5668942 37.6766979,35.5130132 37.6888433,34.45 C37.8681716,28.25 34.1022761,19.45 32.9366418,15.96 C32.3952824,14.5733662 32.0596156,13.1144855 31.9403731,11.63 C31.9086655,10.5016196 32.0123588,9.37350926 32.2492164,8.27 C32.2492164,8.15 32.3089925,8.01 32.3388806,7.88 C33.0419916,5.09688981 34.2474781,2.46674678 35.8955597,0.12 L35.9453731,3.60822483e-15 C30.6551866,3.18 28.2043657,8.38 29.4696269,14.18 C30.036707,16.419708 30.7454959,18.6208407 31.5916791,20.77 L31.6514552,20.96 C31.6514552,21.09 31.7710075,21.27 31.8108582,21.41 C31.9702612,21.87 32.1296642,22.33 32.2492164,22.79 C33.200618,25.4779621 33.9270895,28.2408653 34.4210821,31.05 C34.4748222,31.3811511 34.4748222,31.7188489 34.4210821,32.05 C34.1421269,33.41 33.1358955,36.68 29.8083582,35.94 L29.0810821,35.72 C28.0848134,35.41 27.178209,35.14 26.2018657,34.9 L25.5343657,34.72 C21.9079478,31.07 18.1121642,24.72 17.3051866,13.8 C17.9846172,14.0188976 18.6500437,14.2793859 19.2977239,14.58 L19.706194,14.77 L19.7560075,14.77 L19.9353358,14.87 C22.376194,16.21 29.8980224,22.67 29.8980224,22.67 L29.848209,22.54 L29.4497015,21.63 L27.0885448,16.14 C26.6003731,15.45 22.2964925,8.72 8.88671642,7.47 C8.88671642,7.47 11.2179851,8.99 13.4695522,15.34 C14.1466694,17.2604252 14.7056322,19.2207827 15.1432836,21.21 C16.1551229,26.037404 18.4912824,30.4847649 21.8880224,34.05 C20.351284,33.8017394 18.8008482,33.6481189 17.2454104,33.59 L17.1258582,33.59 C4.86179104,33.18 0.946455224,39.59 0.836865672,39.77 C5.74847015,37.09 8.73727612,34.91 19.546791,36.95 C22.5642296,37.5320758 25.5345885,38.3376112 28.4335075,39.36 C31.0015841,40.261938 33.6507863,40.9116485 36.3438806,41.3 L36.3438806,41.3 C38.5626589,41.6679799 40.8102591,41.8319931 43.0587313,41.79 C48.0400746,41.72 52.1347388,40.59 57.594291,38.85 C70.1871269,34.85 78.9144403,36.52 78.9144403,36.52 C73.2855224,34.43 70.0177612,32.84 63.8209701,33.72 Z" id="Shape"></path>
                    <path d="M62.3464925,31.86 C62.3464925,31.86 70.6254851,28.36 71.0439179,16.78 C71.0439179,16.78 67.9156343,17.44 67.5669403,18.78 C67.5669403,18.78 67.7064179,14.95 69.1510075,13.78 C70.595597,12.61 76.7425746,11.08 80.1797015,11.78 C80.1797015,11.78 75.1983582,13.56 72.8073134,21.96 C70.4162687,30.36 64.7375373,30.72 62.3464925,31.86 Z" id="Path"></path>
                    <path d="M54.5656343,18.62 C54.481375,18.7009744 54.3877171,18.7714809 54.2866791,18.83 L54.5656343,18.62 Z" id="Path"></path>
                    <path d="M59.8558209,14.84 L59.3178358,15.11 C59.490983,15.008092 59.6707104,14.9178917 59.8558209,14.84 L59.8558209,14.84 Z" id="Path"></path>
                    <path d="M17.3151493,31.86 C17.3151493,31.86 9.27526119,28.36 8.85682836,16.78 C8.85682836,16.78 11.9153731,17.44 12.2341791,18.78 C12.2341791,18.78 12.0947015,14.95 10.7098881,13.78 C9.32507463,12.61 3.31757463,11.08 4.14780151e-16,11.78 C4.14780151e-16,11.78 4.84186567,13.56 7.15320896,21.96 C9.46455224,30.36 15.003806,30.72 17.3151493,31.86 Z" id="Path"></path>
                    <path d="M42.879403,6.72 C43.7470901,8.10850486 43.9551565,9.81224567 43.4472761,11.37 C43.2582594,12.0743016 42.9697338,12.7478045 42.5904851,13.37 C42.0074358,14.3814538 40.9414305,15.0148542 39.7775297,15.0414056 C38.6136289,15.067957 37.5200556,14.4838217 36.8918284,13.5 C36.1844841,12.4131724 35.7786767,11.1566712 35.7162313,9.86 C35.5568284,7.05 37.5493657,4.63 39.701306,4.71 C41.0285586,4.80539597 42.2208025,5.55943533 42.879403,6.72 L42.879403,6.72 Z" id="Path"></path>
                    <polygon id="Path" points="48.4286194 37.26 48.3289925 37.26 48.0898881 37.18"></polygon>
                    <polygon id="Path" points="48.4286194 37.26 48.3289925 37.26 48.0898881 37.18"></polygon>
                    <path d="M59.2979104,15.13 C57.6548744,16.2009344 56.0748191,17.3662073 54.5656343,18.62 C55.9317674,17.1926178 57.5325845,16.0120333 59.2979104,15.13 L59.2979104,15.13 Z" id="Path"></path>
                    <path d="M60.1347761,14.72 C60.1347761,14.72 60.0650373,14.78 59.9056343,14.83 L60.1347761,14.72 Z" id="Path"></path>
                    <path d="M19.6962313,14.81 L19.5069403,14.72 C19.2977239,14.65 19.2379478,14.61 19.2777985,14.6 L19.6962313,14.81 Z" id="Path"></path>
                </g>
                <g id="Group" transform="translate(104.608209, 9.000000)">
                    <polygon id="Path" points="0.63761194 28.2 18.6102985 2.03 2.21171642 2.03 2.21171642 0.3 21.3101866 0.3 21.3101866 1.47 3.34746269 27.64 21.4895149 27.64 21.4895149 29.37 0.63761194 29.37"></polygon>
                    <polygon id="Path" points="28.3039925 0.3 45.3800373 0.3 45.3800373 2.03 30.4758582 2.03 30.4758582 13.05 42.9989552 13.05 42.9989552 14.78 30.4758582 14.78 30.4758582 27.61 45.8482836 27.61 45.8482836 29.34 28.3039925 29.34"></polygon>
                    <path d="M52.6826866,0.3 L54.9641418,0.3 L68.085,20.81 L71.611791,26.62 L71.8010821,26.62 C71.6815299,23.77 71.5221269,20.95 71.5221269,18.14 L71.5221269,0.3 L73.584403,0.3 L73.584403,29.39 L71.2929851,29.39 L58.1721269,8.88 L54.6453358,3.07 L54.4560448,3.07 C54.575597,5.86 54.7250373,8.5 54.7250373,11.32 L54.7250373,29.39 L52.6727239,29.39 L52.6826866,0.3 Z" id="Path"></path>
                    <path d="M90.301791,15.17 C96.6779104,15.17 99.7264925,13.17 99.7264925,8.4 C99.7264925,3.63 96.5583582,2.01 90.1125,2.01 L84.9817164,2.01 L84.9817164,15.17 L90.301791,15.17 Z M82.7998881,0.3 L90.6604478,0.3 C97.7239925,0.3 101.968097,2.44 101.968097,8.4 C101.968097,14.11 97.7937313,16.88 90.8397761,16.88 L84.9817164,16.88 L84.9817164,29.39 L82.7998881,29.39 L82.7998881,0.3 Z" id="Shape"></path>
                    <path d="M107.218433,17.72 L121.216007,17.72 L121.216007,19.41 L107.218433,19.41 L107.218433,17.72 Z M113.196045,0.31 L115.387836,0.31 L126.346791,29.4 L124.035448,29.4 L117.828694,12.26 C116.55347,8.79 115.457575,5.76 114.341754,2.2 L114.162425,2.2 C113.06653,5.75 111.970634,8.79 110.705373,12.26 L104.379067,29.38 L102.197239,29.38 L113.196045,0.31 Z" id="Shape"></path>
                    <polygon id="Path" points="135.980709 2.05 126.04791 2.05 126.04791 0.31 148.095336 0.31 148.095336 2.05 138.162537 2.05 138.162537 29.39 135.980709 29.39"></polygon>
                    <polygon id="Path" points="154.072948 0.3 156.244813 0.3 156.244813 13.05 172.942276 13.05 172.942276 0.3 175.124104 0.3 175.124104 29.39 172.932313 29.39 172.932313 14.82 156.234851 14.82 156.234851 29.39 154.053022 29.39"></polygon>
                </g>
            </g>
        </g>
    </g>
</svg>