<?xml version="1.0" encoding="UTF-8"?>
<svg width="21px" height="21px" viewBox="0 0 21 21" version="1.1" xmlns="http://www.w3.org/2000/svg" xmlns:xlink="http://www.w3.org/1999/xlink">
    <title>001-facebook</title>
    <g id="Simbols" stroke="none" stroke-width="1" fill="none" fill-rule="evenodd">
        <g id="Footer" transform="translate(-177.000000, -250.000000)" fill="#FFFFFF" fill-rule="nonzero">
            <g id="001-facebook" transform="translate(177.000000, 250.000000)">
                <path d="M19.8407959,0 L1.15817873,0 C0.51846315,0.000384546878 0,0.519232209 0,1.15920412 L0,19.8418213 C0.000384546879,20.4815369 0.519232209,21 1.15920412,21 L11.2177734,21 L11.2177734,12.8789062 L8.49023439,12.8789062 L8.49023439,9.70019531 L11.2177734,9.70019531 L11.2177734,7.36089477 C11.2177734,4.64809572 12.8739075,3.17153322 15.2938293,3.17153322 C16.4529053,3.17153322 17.4489441,3.25792236 17.7392578,3.29650271 L17.7392578,6.13183595 L16.0705627,6.13183595 C14.7539612,6.13183595 14.4990234,6.75745239 14.4990234,7.6756897 L14.4990234,9.70019531 L17.6469727,9.70019531 L17.2368164,12.8789062 L14.4990234,12.8789062 L14.4990234,21 L19.8407959,21 C20.480896,21 21,20.4814087 21,19.8413086 C21,19.8411804 21,19.8410522 21,19.8407959 L21,1.15817873 C20.9997437,0.518463149 20.4807678,0 19.8407959,0 Z" id="Path"></path>
            </g>
        </g>
    </g>
</svg>