<?xml version="1.0" encoding="UTF-8"?>
<svg width="23px" height="21px" viewBox="0 0 23 21" version="1.1" xmlns="http://www.w3.org/2000/svg" xmlns:xlink="http://www.w3.org/1999/xlink">
    <title>003-instagram-symbol</title>
    <g id="Simbols" stroke="none" stroke-width="1" fill="none" fill-rule="evenodd">
        <g id="Footer" transform="translate(-233.000000, -250.000000)" fill="#FFFFFF" fill-rule="nonzero">
            <g id="003-instagram-symbol" transform="translate(233.000000, 250.000000)">
                <path d="M22.1317845,0.793097944 C21.5527644,0.26428617 20.8588844,0 20.0505115,0 L2.950013,0 C2.14137786,0 1.44770759,0.264381944 0.868530148,0.793097944 C0.289457602,1.32167028 0,1.95511429 0,2.6932863 L0,18.30657 C0,19.0446463 0.289405154,19.6782339 0.868530148,20.2068542 C1.44770759,20.7355223 2.14153521,21 2.950013,21 L20.0503017,21 C20.8585172,21 21.5526071,20.7355223 22.1316272,20.2068542 C22.7108046,19.6782339 23,19.0446463 23,18.30657 L23,2.6932863 C23,1.95497063 22.7108046,1.32186183 22.1317845,0.793097944 Z M8.32024456,7.31688289 C9.20023729,6.43910153 10.2578226,6 11.4928472,6 C12.7374259,6 13.7997627,6.43910153 14.6799598,7.31688289 C15.5601569,8.19482239 16,9.25594049 16,10.5000264 C16,11.7439541 15.5601569,12.8051249 14.6799598,13.6828008 C13.7997627,14.5609512 12.7377836,15 11.4928472,15 C10.2578737,15 9.20039056,14.5605822 8.32024456,13.6828008 C7.44004746,12.8050195 7,11.7439541 7,10.5000264 C7,9.25594049 7.44004746,8.1948751 8.32024456,7.31688289 Z M20,18.1398338 C20,18.3841206 19.9140106,18.588541 19.7428818,18.7531938 C19.571253,18.9176983 19.3669782,19 19.1288576,19 L3.87074244,19 C3.623373,19 3.41624858,18.9176983 3.24986913,18.7531938 C3.08323972,18.5888868 3,18.3841206 3,18.1398338 L3,9 L5.0125014,9 C4.8222749,9.59246342 4.72713665,10.2084416 4.72713665,10.8476876 C4.72713665,12.6534338 5.39315438,14.1928606 6.72533981,15.4672028 C8.05767523,16.7410511 9.66102717,17.3782716 11.5355956,17.3782716 C12.7726428,17.3782716 13.9144517,17.0866588 14.9615224,16.5037298 C16.0082431,15.9204549 16.8355909,15.1284618 17.4450156,14.12696 C18.0540904,13.1255076 18.3586028,12.0323674 18.3586028,10.847737 C18.3586028,10.208491 18.2631146,9.59266102 18.0728881,9 L20,9 L20,18.1398832 L20,18.1398832 L20,18.1398338 Z M20,5.08904482 C20,5.34428428 19.9145478,5.55994313 19.743329,5.73592888 C19.5724694,5.91205336 19.363172,6 19.1151674,6 L16.8845182,6 C16.6367831,6 16.4271714,5.91200712 16.2563118,5.73592888 C16.0854073,5.55994313 16,5.34428428 16,5.08904482 L16,2.91100142 C16,2.66454738 16.0854073,2.45115424 16.2563118,2.2706833 C16.4272163,2.09030483 16.636828,2 16.8845182,2 L19.1151674,2 C19.363172,2 19.5725143,2.09025859 19.743329,2.2706833 C19.9145029,2.45115424 20,2.66454738 20,2.91100142 L20,5.08904482 Z" id="Shape"></path>
            </g>
        </g>
    </g>
</svg>