<?xml version="1.0" encoding="UTF-8"?>
<svg width="27px" height="21px" viewBox="0 0 27 21" version="1.1" xmlns="http://www.w3.org/2000/svg" xmlns:xlink="http://www.w3.org/1999/xlink">
    <title>004-twitter</title>
    <g id="Simbols" stroke="none" stroke-width="1" fill="none" fill-rule="evenodd">
        <g id="Footer" transform="translate(-121.000000, -250.000000)" fill="#FFFFFF" fill-rule="nonzero">
            <g id="004-twitter" transform="translate(121.000000, 250.000000)">
                <path d="M8.49127636,21 C18.6804447,21 24.252463,12.9212536 24.252463,5.91609166 C24.252463,5.68664736 24.2475095,5.45815116 24.2367769,5.23091915 C25.3182894,4.48253885 26.2582971,3.54864369 27,2.48564658 C26.0074853,2.90803267 24.9391821,3.19199368 23.8188673,3.32046351 C24.9624635,2.66389257 25.8405526,1.6257045 26.2546645,0.388095865 C25.1843799,0.995364771 23.9990093,1.43655518 22.7371897,1.67484857 C21.7263471,0.644403496 20.2870274,0 18.6934889,0 C15.6345423,0 13.1536683,2.3740848 13.1536683,5.30060574 C13.1536683,5.71682909 13.2023777,6.12135898 13.2973196,6.50945485 C8.69337884,6.2877535 4.61071054,4.17835135 1.8788596,0.970555722 C1.40332434,1.75385832 1.12890086,2.66405058 1.12890086,3.63523833 C1.12890086,5.47426917 2.10688534,7.09823545 3.59392373,8.04793259 C2.68512302,8.02122731 1.83147118,7.78245985 1.08514502,7.38504083 C1.08431945,7.40732157 1.08431945,7.42897023 1.08431945,7.45267317 C1.08431945,10.0201738 2.99372558,12.1638662 5.52875776,12.6496181 C5.06312949,12.7708191 4.57322915,12.8360811 4.0679729,12.8360811 C3.71165171,12.8360811 3.36424679,12.802581 3.02674886,12.7404793 C3.73196104,14.8468791 5.77709284,16.3796682 8.20166216,16.4226495 C6.30563045,17.8448249 3.91722163,18.6919674 1.32142661,18.6919674 C0.874951842,18.6919674 0.433595697,18.6674743 0,18.6184883 C2.4516484,20.1223597 5.36281578,21 8.49144146,21" id="Path"></path>
            </g>
        </g>
    </g>
</svg>