<?xml version="1.0" encoding="UTF-8"?>
<svg width="17px" height="20px" viewBox="0 0 17 20" version="1.1" xmlns="http://www.w3.org/2000/svg" xmlns:xlink="http://www.w3.org/1999/xlink">
    <title>bag</title>
    <g id="-" stroke="none" stroke-width="1" fill="none" fill-rule="evenodd">
        <g id="Desktop---Home" transform="translate(-1303.000000, -41.000000)" fill="#716763" fill-rule="nonzero">
            <g id="bag" transform="translate(1303.000000, 41.000000)">
                <path d="M15.5833333,5.64285714 C15.5468244,5.27649908 15.2401303,4.99815482 14.875,5 L12.75,5 L12.75,4.28571429 C12.75,1.91877964 10.8472102,0 8.5,0 C6.15278981,0 4.25,1.91877964 4.25,4.28571429 L4.25,5 L2.125,5 C1.7598697,4.99815482 1.45317557,5.27649908 1.41666667,5.64285714 L0.17,17.6357143 C0.107600078,18.2413143 0.303620432,18.8450898 0.709097946,19.2962261 C1.11457546,19.7473624 1.69122222,20.0032603 2.295,20.0000308 L14.7191667,20.0000308 C15.3229445,20.0032603 15.8995912,19.7473624 16.3050687,19.2962261 C16.7105462,18.8450898 16.9065666,18.2413143 16.8441667,17.6357143 L15.5833333,5.64285714 Z M5.66666667,4.28571429 C5.66666667,2.70775786 6.93519321,1.42857143 8.5,1.42857143 C10.0648068,1.42857143 11.3333333,2.70775786 11.3333333,4.28571429 L11.3333333,5 L5.66666667,5 L5.66666667,4.28571429 Z M15.2433333,18.3357143 C15.1094164,18.4853425 14.9190429,18.5709522 14.7191667,18.5714376 L2.28083333,18.5714376 C2.08002949,18.5724438 1.88823464,18.4874657 1.75315765,18.3376324 C1.61808067,18.1877991 1.55241684,17.9871928 1.5725,17.7857143 L2.7625,6.42857143 L14.2375,6.42857143 L15.4204167,17.7857143 C15.4409099,17.9860228 15.3766042,18.1857487 15.2433333,18.3357143 L15.2433333,18.3357143 Z M12.75,8.57142857 C12.75,10.9383632 10.8472102,12.8571429 8.5,12.8571429 C6.15278981,12.8571429 4.25,10.9383632 4.25,8.57142857 C4.25,8.17693946 4.56713164,7.85714286 4.95833333,7.85714286 C5.34953503,7.85714286 5.66666667,8.17693946 5.66666667,8.57142857 C5.66666667,10.149385 6.93519321,11.4285714 8.5,11.4285714 C10.0648068,11.4285714 11.3333333,10.149385 11.3333333,8.57142857 C11.3333333,8.17693946 11.650465,7.85714286 12.0416667,7.85714286 C12.4328684,7.85714286 12.75,8.17693946 12.75,8.57142857 L12.75,8.57142857 Z" id="Shape"></path>
            </g>
        </g>
    </g>
</svg>