<?xml version="1.0" encoding="UTF-8"?>
<svg width="62px" height="62px" viewBox="0 0 62 62" version="1.1" xmlns="http://www.w3.org/2000/svg" xmlns:xlink="http://www.w3.org/1999/xlink">
    <title>effective</title>
    <g id="-" stroke="none" stroke-width="1" fill="none" fill-rule="evenodd">
        <g id="Desktop---Home" transform="translate(-205.000000, -4841.000000)" stroke="#403835" stroke-width="1.6">
            <g id="effective" transform="translate(206.000000, 4842.000000)">
                <path d="M60,30 C60,46.5686776 46.5678255,60 30,60 C13.4321745,60 0,46.5686776 0,30 C0,13.4313224 13.4321745,0 30,0 C46.5678255,0 60,13.4313224 60,30 Z" id="Stroke-1"></path>
                <path d="M21.6124408,38.0191877 C23.4769206,31.9410477 31.0070873,13.9079687 52.7027027,24.1831002 C52.7027027,24.1831002 52.2347355,49.5200563 24.1484945,44.5968893 L21.1058869,51.0810811 C21.1058869,51.0810811 18.6486486,50.2403349 18.6486486,48.7989354 C18.6486486,48.7989354 27.3076835,35.590459 35.6752652,30.9073848 C35.6752652,30.9073848 26.3504033,35.8878371 22.5196404,38.693975 C22.0590621,39.0317898 21.4424948,38.5743497 21.6124408,38.0191877 Z" id="Stroke-3"></path>
                <path d="M18.7166542,35.7837838 C18.7166542,35.7837838 7.2934296,29.7738917 12.8993057,14.2304659 C12.8993057,14.2304659 19.7747587,11.3640083 30.3513514,20.153848 C30.3513514,20.153848 24.3225303,24.7679505 23.5827476,24.7839439 L18.9281267,21.2762955 L21.8894836,25.8358749 L21.6780111,27.9084771 C21.6780111,27.9084771 18.610547,34.7478462 18.7166542,35.7837838 Z" id="Stroke-5"></path>
            </g>
        </g>
    </g>
</svg>