<?xml version="1.0" encoding="UTF-8"?>
<svg width="187px" height="28px" viewBox="0 0 187 28" version="1.1" xmlns="http://www.w3.org/2000/svg" xmlns:xlink="http://www.w3.org/1999/xlink">
    <title>foot-logo</title>
    <g id="Simbols" stroke="none" stroke-width="1" fill="none" fill-rule="evenodd">
        <g id="Footer" transform="translate(-121.000000, -70.000000)" fill="#FFFFFF" fill-rule="nonzero">
            <g id="foot-logo" transform="translate(121.000000, 70.000000)">
                <g id="Group">
                    <path d="M32.3466667,24.8333333 L32.3466667,24.8333333 L32.1866667,24.78 L32.4133333,24.84 L32.3466667,24.8333333 Z M42.7066667,22.48 C41.0695831,22.7287797 39.455394,23.1100316 37.88,23.62 C38.7430312,22.8485396 39.5147399,21.9806469 40.18,21.0333333 C41.6295495,18.9570009 42.6599217,16.6177161 43.2133333,14.1466667 C43.5376203,12.7364507 43.95407,11.3490272 44.46,9.99333333 C45.98,5.95333333 47.5266667,4.98 47.5266667,4.98 C37.7466667,5.86666667 34.9933333,10.8466667 34.9933333,10.8466667 L33.22,14.8933333 L33.1066667,15.16 C33.1066667,15.16 34.64,13.8666667 36.2933333,12.5533333 L36.5133333,12.4133333 C37.4374896,11.4586349 38.5201947,10.6714181 39.7133333,10.0866667 L39.7133333,10.0866667 C39.8263094,10.0135414 39.9470475,9.95317235 40.0733333,9.90666667 L40.0733333,9.90666667 L40.2266667,9.83333333 C40.7115159,9.61360611 41.2077817,9.41999567 41.7133333,9.25333333 C41.0466667,18.08 37.18,22.4266667 34.22,24.48 C34.1939067,24.4987045 34.1644958,24.5122787 34.1333333,24.52 C33.6733333,24.6333333 33.2133333,24.7333333 32.7533333,24.8133333 C31.1407644,24.7103845 29.8342576,23.465691 29.6533333,21.86 C29.6456233,21.4832704 29.667916,21.1065248 29.72,20.7333333 C30.0563454,18.8633596 30.5446304,17.0239297 31.18,15.2333333 L31.3,14.8733333 C31.3666667,14.6466667 31.4466667,14.4266667 31.5266667,14.2066667 C32.1293393,12.682703 32.6413445,11.1244264 33.06,9.54 C33.9133333,5.67333333 32.2666667,2.20666667 28.7533333,0.0866666667 L28.7533333,0.126666667 C29.9319742,1.79636003 30.7722301,3.68070751 31.2266667,5.67333333 C31.3664244,6.35969394 31.4268208,7.05984507 31.4066667,7.76 C31.3263986,8.7495833 31.1017984,9.72210192 30.74,10.6466667 C29.7933333,13.4266667 26.2933333,21.4066667 27.9733333,25.2533333 C26.9304758,25.2380344 25.8890974,25.1690542 24.8533333,25.0466667 C25.0880192,24.3779294 25.2118728,23.6753421 25.22,22.9666667 C25.34,18.8333333 22.82,12.9666667 22.04,10.64 C21.677742,9.71557745 21.4531261,8.74299034 21.3733333,7.75333333 C21.3521158,7.00107973 21.4215035,6.24900617 21.58,5.51333333 C21.58,5.43333333 21.62,5.34 21.64,5.25333333 C22.1104963,3.39792654 22.9171638,1.64449785 24.02,0.08 L24.0533333,2.13162821e-13 C20.5133333,2.12 18.8733333,5.58666667 19.72,9.45333333 C20.0994694,10.946472 20.573765,12.4138938 21.14,13.8466667 L21.18,13.9733333 C21.18,14.06 21.26,14.18 21.2866667,14.2733333 C21.3933333,14.58 21.5,14.8866667 21.58,15.1933333 C22.2166432,16.985308 22.7027715,18.8272435 23.0333333,20.7 C23.0692943,20.9207674 23.0692943,21.1458993 23.0333333,21.3666667 C22.8466667,22.2733333 22.1733333,24.4533333 19.9466667,23.96 L19.46,23.8133333 C18.7933333,23.6066667 18.1866667,23.4266667 17.5333333,23.2666667 L17.0866667,23.1466667 C14.66,20.7133333 12.12,16.48 11.58,9.2 C12.0346502,9.34593175 12.4799294,9.51959061 12.9133333,9.72 L13.1866667,9.84666667 L13.22,9.84666667 L13.34,9.91333333 C14.9733333,10.8066667 20.0066667,15.1133333 20.0066667,15.1133333 L19.9733333,15.0266667 L19.7066667,14.42 L18.1266667,10.76 C17.8,10.3 14.92,5.81333333 5.94666667,4.98 C5.94666667,4.98 7.50666667,5.99333333 9.01333333,10.2266667 C9.46643545,11.5069501 9.840473,12.8138552 10.1333333,14.14 C10.8104194,17.3582693 12.3736921,20.3231766 14.6466667,22.7 C13.6183374,22.5344929 12.5808422,22.4320793 11.54,22.3933333 L11.46,22.3933333 C3.25333333,22.12 0.633333333,26.3933333 0.56,26.5133333 C3.84666667,24.7266667 5.84666667,23.2733333 13.08,24.6333333 C15.0991599,25.0213838 17.0868158,25.5584075 19.0266667,26.24 C20.7451299,26.841292 22.5178795,27.2744323 24.32,27.5333333 L24.32,27.5333333 C25.8047256,27.7786532 27.3087377,27.8879954 28.8133333,27.86 C32.1466667,27.8133333 34.8866667,27.06 38.54,25.9 C46.9666667,23.2333333 52.8066667,24.3466667 52.8066667,24.3466667 C49.04,22.9533333 46.8533333,21.8933333 42.7066667,22.48 Z" id="Shape"></path>
                    <path d="M41.72,21.24 C41.72,21.24 47.26,18.9066667 47.54,11.1866667 C47.54,11.1866667 45.4466667,11.6266667 45.2133333,12.52 C45.2133333,12.52 45.3066667,9.96666667 46.2733333,9.18666667 C47.24,8.40666667 51.3533333,7.38666667 53.6533333,7.85333333 C53.6533333,7.85333333 50.32,9.04 48.72,14.64 C47.12,20.24 43.32,20.48 41.72,21.24 Z" id="Path"></path>
                    <path d="M36.5133333,12.4133333 C36.4569501,12.4673163 36.3942776,12.5143206 36.3266667,12.5533333 L36.5133333,12.4133333 Z" id="Path"></path>
                    <path d="M40.0533333,9.89333333 L39.6933333,10.0733333 C39.8091971,10.0053947 39.9294641,9.94526114 40.0533333,9.89333333 L40.0533333,9.89333333 Z" id="Path"></path>
                    <path d="M11.5866667,21.24 C11.5866667,21.24 6.20666667,18.9066667 5.92666667,11.1866667 C5.92666667,11.1866667 7.97333333,11.6266667 8.18666667,12.52 C8.18666667,12.52 8.09333333,9.96666667 7.16666667,9.18666667 C6.24,8.40666667 2.22,7.38666667 1.55520041e-12,7.85333333 C1.55520041e-12,7.85333333 3.24,9.04 4.78666667,14.64 C6.33333333,20.24 10.04,20.48 11.5866667,21.24 Z" id="Path"></path>
                    <path d="M28.6933333,4.48 C29.2739579,5.40566991 29.4131883,6.54149711 29.0733333,7.58 C28.9468503,8.04953442 28.7537794,8.49853634 28.5,8.91333333 C28.1098447,9.58763585 27.3965128,10.0099028 26.6176728,10.0276037 C25.8388328,10.0453046 25.1070534,9.65588111 24.6866667,9 C24.2133377,8.27544827 23.9417861,7.43778083 23.9,6.57333333 C23.7933333,4.7 25.1266667,3.08666667 26.5666667,3.14 C27.4548157,3.20359731 28.2526219,3.70629022 28.6933333,4.48 L28.6933333,4.48 Z" id="Path"></path>
                    <polygon id="Path" points="32.4066667 24.84 32.34 24.84 32.18 24.7866667"></polygon>
                    <polygon id="Path" points="32.4066667 24.84 32.34 24.84 32.18 24.7866667"></polygon>
                    <path d="M39.68,10.0866667 C38.5805401,10.800623 37.5232247,11.5774715 36.5133333,12.4133333 C37.4274998,11.4617452 38.4987083,10.6746889 39.68,10.0866667 L39.68,10.0866667 Z" id="Path"></path>
                    <path d="M40.24,9.81333333 C40.24,9.81333333 40.1933333,9.85333333 40.0866667,9.88666667 L40.24,9.81333333 Z" id="Path"></path>
                    <path d="M13.18,9.87333333 L13.0533333,9.81333333 C12.9133333,9.76666667 12.8733333,9.74 12.9,9.73333333 L13.18,9.87333333 Z" id="Path"></path>
                </g>
                <g id="Group" transform="translate(70.000000, 6.000000)">
                    <polygon id="Path" points="0.425454545 18.8 12.4179545 1.35333333 1.47579545 1.35333333 1.47579545 0.2 14.2194886 0.2 14.2194886 0.98 2.23363636 18.4266667 14.3391477 18.4266667 14.3391477 19.58 0.425454545 19.58"></polygon>
                    <polygon id="Path" points="18.8861932 0.2 30.2803977 0.2 30.2803977 1.35333333 20.3353977 1.35333333 20.3353977 8.7 28.6915909 8.7 28.6915909 9.85333333 20.3353977 9.85333333 20.3353977 18.4066667 30.5928409 18.4066667 30.5928409 19.56 18.8861932 19.56"></polygon>
                    <path d="M35.1531818,0.2 L36.6755114,0.2 L45.4305682,13.8733333 L47.7838636,17.7466667 L47.9101705,17.7466667 C47.8303977,15.8466667 47.7240341,13.9666667 47.7240341,12.0933333 L47.7240341,0.2 L49.1001136,0.2 L49.1001136,19.5933333 L47.5711364,19.5933333 L38.8160795,5.92 L36.4627841,2.04666667 L36.3364773,2.04666667 C36.41625,3.90666667 36.5159659,5.66666667 36.5159659,7.54666667 L36.5159659,19.5933333 L35.1465341,19.5933333 L35.1531818,0.2 Z" id="Path"></path>
                    <path d="M60.255,10.1133333 C64.5095455,10.1133333 66.54375,8.78 66.54375,5.6 C66.54375,2.42 64.4297727,1.34 60.1286932,1.34 L56.7051136,1.34 L56.7051136,10.1133333 L60.255,10.1133333 Z M55.2492614,0.2 L60.4943182,0.2 C65.2075568,0.2 68.0394886,1.62666667 68.0394886,5.6 C68.0394886,9.40666667 65.2540909,11.2533333 60.6139773,11.2533333 L56.7051136,11.2533333 L56.7051136,19.5933333 L55.2492614,19.5933333 L55.2492614,0.2 Z" id="Shape"></path>
                    <path d="M71.5428409,11.8133333 L80.8828977,11.8133333 L80.8828977,12.94 L71.5428409,12.94 L71.5428409,11.8133333 Z M75.5314773,0.206666667 L76.9939773,0.206666667 L84.3064773,19.6 L82.7642045,19.6 L78.6226705,8.17333333 C77.7717614,5.86 77.0405114,3.84 76.2959659,1.46666667 L76.1763068,1.46666667 C75.4450568,3.83333333 74.7138068,5.86 73.8695455,8.17333333 L69.6482386,19.5866667 L68.1923864,19.5866667 L75.5314773,0.206666667 Z" id="Shape"></path>
                    <polygon id="Path" points="90.7348295 1.36666667 84.1070455 1.36666667 84.1070455 0.206666667 98.8184659 0.206666667 98.8184659 1.36666667 92.1906818 1.36666667 92.1906818 19.5933333 90.7348295 19.5933333"></polygon>
                    <polygon id="Path" points="102.807102 0.2 104.256307 0.2 104.256307 8.7 115.397898 8.7 115.397898 0.2 116.85375 0.2 116.85375 19.5933333 115.39125 19.5933333 115.39125 9.88 104.249659 9.88 104.249659 19.5933333 102.793807 19.5933333"></polygon>
                </g>
            </g>
        </g>
    </g>
</svg>