<?xml version="1.0" encoding="UTF-8"?>
<svg width="47px" height="60px" viewBox="0 0 47 60" version="1.1" xmlns="http://www.w3.org/2000/svg" xmlns:xlink="http://www.w3.org/1999/xlink">
    <title>germany</title>
    <g id="-" stroke="none" stroke-width="1" fill="none" fill-rule="evenodd">
        <g id="Desktop---Home" transform="translate(-697.000000, -4838.000000)" stroke="#403835" stroke-width="1.5">
            <g id="germany" transform="translate(698.000000, 4839.000000)">
                <g id="Group-3" transform="translate(0.579832, 0.000000)">
                    <path d="M40.6798695,31.6218942 C40.1779363,32.0159633 39.6613234,32.3940874 39.176893,32.8097961 C38.2074675,33.6412135 37.2645784,34.504521 36.2928945,35.33423 C34.925423,36.5010618 33.3168655,37.0716647 31.5490896,37.2493375 C31.2944531,37.2749634 31.0533671,37.4327049 30.8060704,37.5289443 C30.903747,37.7772307 30.9681119,38.0465871 31.1070045,38.2686781 C31.3080036,38.5898558 31.5767552,38.8677542 31.7890464,39.1826678 C32.000773,39.497012 32.1232921,39.7760493 31.91947,40.2225091 C31.7579932,40.5761463 31.7404905,41.1211233 32.0386015,41.5015253 C32.42592,41.996959 32.8459856,42.470753 33.2863769,42.9194907 C34.147963,43.7981736 35.0908521,44.6022568 35.8942839,45.5304831 C36.7163477,46.481488 37.0805174,47.6505976 37.0246216,48.9353085 C36.9760656,50.0315267 36.4323517,50.8094145 35.4053366,51.2017752 C35.1055318,51.315668 34.7944348,51.3976708 34.4963238,51.5155499 C33.7939561,51.7945872 33.5308505,52.2165601 33.6155412,52.9728083 C33.677083,53.5229105 33.7866162,54.0673181 33.8628378,54.6157119 C34.0085057,55.65897 33.5432718,56.1982524 32.4931079,56.2073639 C32.1029664,56.2107806 31.7122603,56.2141974 31.3226833,56.1936967 C30.0974921,56.1327641 28.9965138,56.4881096 27.976274,57.1566604 C27.4190096,57.5216868 26.8487593,57.8946857 26.170105,57.9630214 C25.7076941,58.0097174 25.2317327,57.9954808 24.7687573,57.9470764 C23.8676489,57.8519759 22.9733158,57.7648479 22.0614799,57.8383088 C21.6431082,57.8719072 21.171099,57.7990158 20.7899911,57.6247598 C19.9888177,57.2585944 19.1486866,57.0763659 18.3057325,56.8633864 C17.130791,56.5666956 15.9818214,56.165793 14.8130906,55.8429069 C13.7527638,55.5507719 12.729701,55.7273057 11.7297868,56.1640846 C11.1877668,56.4009816 10.6333254,56.6469901 10.0585583,56.7631607 C9.25625564,56.9260274 8.65946895,56.5752376 8.27553807,55.8383512 C7.80635194,54.938598 7.8012705,53.9676619 7.91588516,52.9938785 C8.08413723,51.5645238 8.69390981,50.2729794 9.21221651,48.9552397 C9.54533301,48.1101551 9.9027275,47.2747514 10.2352794,46.4678209 C9.91797181,46.3357053 9.5701756,46.2172567 9.24609276,46.0515427 C8.25182469,45.5424419 7.19714396,45.2839052 6.09334266,45.1466644 C5.43953094,45.065231 4.79418829,44.8738911 4.16183154,44.6768566 C3.56335104,44.4900724 3.21894245,44.0100142 2.99084234,43.4399808 C2.83614077,43.0544536 2.67692238,42.6717738 2.51488096,42.2896635 C2.34888731,41.8990112 2.37260069,41.5265817 2.60295922,41.1678194 C2.66450108,41.0721494 2.7198323,40.9724932 2.79718308,40.842086 C2.68934367,40.7794449 2.59844239,40.7162344 2.49907204,40.6712467 C1.39075391,40.1655627 1.08078618,39.6171689 1.2168558,38.3996548 C1.23605234,38.2276767 1.27331622,38.0522818 1.25920112,37.882012 C1.20951595,37.2686993 1.41446729,36.7778213 1.88308881,36.3803354 C2.10723669,36.1901345 2.17950604,35.9259032 2.11288274,35.6263651 C1.87744277,34.568301 1.3105801,33.6708257 0.75388032,32.7687947 C0.674835725,32.6412347 0.583934442,32.5210778 0.493033159,32.4020599 C0.0961163748,31.8810003 0.0300576782,31.3400095 0.373337059,30.7608646 C0.787756574,30.0627017 0.823891246,29.2682994 0.917615551,28.4898421 C0.938505908,28.317864 0.953750222,28.1453164 0.988191081,27.9756161 C1.12200229,27.3218714 1.0576374,26.7045724 0.786062762,26.0827178 C0.475530427,25.3691793 0.708147376,24.9648599 1.46076483,24.796868 C2.01859383,24.6727249 2.57924584,24.5594015 3.14102707,24.4534812 C3.6248929,24.3629364 3.82193978,24.1875415 3.79427418,23.6858437 C3.75362267,22.9483878 4.04044163,22.431884 4.68521967,22.1107063 C5.06971516,21.9187969 5.1679563,21.5685765 5.18884666,21.1910219 C5.21199543,20.7764521 5.20578479,20.3596045 5.19279889,19.9438957 C5.16174566,18.9530284 5.34693585,18.0162601 5.83701233,17.147258 C5.89686038,17.0407682 5.95614383,16.9001106 5.93638268,16.7896346 C5.80934673,16.0584428 6.07301691,15.3990035 6.28079127,14.7287443 C6.3383809,14.5413907 6.40161658,14.3551759 6.46315844,14.1689612 C6.62971669,13.6666939 6.65455928,13.1963167 6.33499328,12.716828 C5.98550325,12.1900738 6.08148597,11.6365548 6.48856563,11.1844003 C7.18246425,10.4139155 8.0141263,9.91335666 9.09986026,9.93385737 C9.70511601,9.94524665 10.1167125,10.216881 10.4215988,10.7174398 C10.5949323,11.0021718 10.772218,11.2886122 10.9822508,11.54601 C11.2397103,11.861493 11.4757149,11.8683266 11.7105903,11.5363291 C11.9742605,11.1650386 12.2362368,10.7704 12.3881154,10.3455798 C12.6286368,9.67190392 12.8719812,9.04435458 13.618388,8.78980417 C13.6731546,8.77101186 13.7205814,8.64516031 13.7222752,8.56885214 C13.7409072,7.49598194 13.6195172,6.47094672 12.8493971,5.6264316 C12.5111991,5.25514106 12.5416877,4.87986428 12.8883547,4.51256 C13.076368,4.31381706 13.295999,4.13899161 13.5212761,3.98352793 C13.7296151,3.83945354 13.7894631,3.68171201 13.6731546,3.45677372 C13.2864007,2.70906748 12.9402983,1.93573535 12.0860521,1.57526463 C11.8669857,1.48301147 11.6659866,1.2831296 11.5254001,1.08324773 C11.1843791,0.599772786 11.4582122,0.047962161 12.0431422,0.0137943204 C12.2441413,0.00240504022 12.4744998,0.00183557621 12.6478333,0.0866857136 C13.0904831,0.305359893 13.5466833,0.368000934 14.0181278,0.286567581 C14.8294641,0.145909971 15.6080534,0.356611654 16.4024516,0.447156432 C17.4593907,0.567882802 18.3305751,0.992133489 19.0357658,1.78653578 C19.1571557,1.92434607 19.2966129,2.04905869 19.44341,2.15896524 C19.8634756,2.47160099 20.0972217,2.85997544 20.0057558,3.40723035 C19.944214,3.77852089 20.2028027,3.93170671 20.4817172,4.02851559 C21.065518,4.23010585 21.6623047,4.39581987 22.2455409,4.59911853 C22.5555086,4.70731669 22.8694286,4.83145984 23.1443908,5.00742422 C23.4091902,5.17598557 23.6293859,5.17655503 23.8727303,5.00799368 C24.0426762,4.89011463 24.2035884,4.75401274 24.3842618,4.65720385 C24.5841317,4.55128355 24.7952937,4.44080753 25.0132309,4.40208398 C25.3615917,4.34058187 25.5863042,4.5615339 25.4660435,4.88555892 C25.346912,5.20445877 25.1453483,5.52165022 24.9008746,5.75740832 C24.5395279,6.10705922 24.0980074,6.37242945 23.7106889,6.69702394 C23.4961393,6.87697456 23.3222412,7.10532963 23.1302757,7.31204507 L23.1562475,7.44359125 C23.5610688,7.53014978 23.9709715,7.59734654 24.3684528,7.71010041 C24.7269765,7.81089554 25.087194,7.93105245 25.4180521,8.10018326 C25.6704302,8.22888212 25.847716,8.20154785 26.0329062,8.01818044 C26.2615709,7.79039484 26.4857188,7.55748406 26.7222879,7.33824041 C27.348434,6.75852605 28.0891948,6.34224786 28.7813996,5.85934238 C29.8445494,5.11790024 31.0087634,4.71415026 32.1978199,4.30185831 C32.6692644,4.13842214 33.1028805,4.02054309 33.59578,4.16063124 C33.9469639,4.2608569 34.2478979,4.10482377 34.500276,3.85995424 C34.632958,3.73182484 34.7487019,3.58661152 34.8779963,3.45620426 C35.3658143,2.96589575 35.9806683,3.01600858 36.3674223,3.59344508 C36.8512881,4.31666438 36.7790187,5.05468973 36.3747621,5.78417313 C36.2810378,5.95273448 36.1590833,6.10478137 36.0523731,6.26195343 C36.4436438,6.46923833 36.8416898,6.64520271 37.2019073,6.87868296 C38.1103556,7.46636981 38.5874461,8.31373226 38.6822997,9.40596423 C38.7110945,9.73739228 38.8336136,10.0881821 39.0041241,10.3746225 C39.5687283,11.3279053 40.168338,12.2606873 40.3930505,13.3700032 C40.4912917,13.8546171 40.5985665,14.345495 40.6160692,14.836373 C40.6363949,15.4115317 40.2801297,15.7964893 39.7996515,16.0658458 C39.2248843,16.3870235 39.2491623,16.3710785 39.6037338,16.9354174 C39.9724204,17.5208264 40.3936151,18.0270799 40.9892726,18.3983704 C41.416678,18.6648796 41.6120311,19.0811578 41.495158,19.6210096 C41.2693163,20.6591425 41.4471666,21.6266619 41.97733,22.5526104 C42.4713587,23.4159178 42.2929438,24.4853712 41.5809778,25.1903676 C41.3201307,25.4483348 41.2681871,25.7154135 41.4426498,26.0308965 C41.8073841,26.688058 42.1901858,27.321302 42.7943124,27.8053464 C43.8264089,28.6316387 44.0748348,29.5940328 43.6530754,30.8627986 C43.4390904,31.5068624 43.1579175,32.1167584 42.6480799,32.5717601 C42.4346595,32.7625306 42.1529219,32.9231194 41.8779597,32.9846215 C41.3664282,33.0979449 40.9407166,32.7425993 40.8548968,32.2101505 C40.8277958,32.0404502 40.8035178,31.8701805 40.7781106,31.7010497 C40.7459282,31.6742849 40.7126165,31.6480895 40.6798695,31.6218942" id="Fill-1"></path>
                </g>
            </g>
        </g>
    </g>
</svg>