<?xml version="1.0" encoding="UTF-8"?>
<svg width="76px" height="76px" viewBox="0 0 76 76" version="1.1" xmlns="http://www.w3.org/2000/svg" xmlns:xlink="http://www.w3.org/1999/xlink">
    <title>natural-icon</title>
    <g id="-" stroke="none" stroke-width="1" fill="none" fill-rule="evenodd">
        <g id="Desktop---Home" transform="translate(-352.000000, -2859.000000)" stroke="#FFFFFF" stroke-width="2">
            <g id="Group-18" transform="translate(-8.000000, 2657.000000)">
                <g id="natural-icon" transform="translate(361.000000, 203.000000)">
                    <path d="M74,37 C74,57.4347023 57.4336514,74 37,74 C16.5663486,74 0,57.4347023 0,37 C0,16.5652977 16.5663486,0 37,0 C57.4336514,0 74,16.5652977 74,37 Z" id="Stroke-1"></path>
                    <path d="M26.6553437,46.8903315 C28.9548687,39.3939588 38.2420743,17.1531614 65,29.8258235 C65,29.8258235 64.4228405,61.0747362 29.7831433,55.0028301 L26.0305938,63 C26.0305938,63 23,61.9630797 23,60.1853536 C23,60.1853536 33.6794764,43.8948994 43.9994937,38.1191079 C43.9994937,38.1191079 32.4988307,44.2616658 27.7742231,47.7225691 C27.2061766,48.1392074 26.4457436,47.5750314 26.6553437,46.8903315 Z" id="Stroke-3"></path>
                    <path d="M24.466483,48 C24.466483,48 8.23347961,39.5315158 16.1997246,17.6294156 C16.1997246,17.6294156 25.9701052,13.5903164 41,25.9759996 C41,25.9759996 32.432728,32.4776894 31.3814578,32.5002256 L24.7669966,27.5576301 L28.9752406,33.982492 L28.6747271,36.9029769 C28.6747271,36.9029769 24.315699,46.5402697 24.466483,48 Z" id="Stroke-5"></path>
                </g>
            </g>
        </g>
    </g>
</svg>