<?xml version="1.0" encoding="UTF-8"?>
<svg width="71px" height="72px" viewBox="0 0 71 72" version="1.1" xmlns="http://www.w3.org/2000/svg" xmlns:xlink="http://www.w3.org/1999/xlink">
    <title>no-sugar</title>
    <g id="-" stroke="none" stroke-width="1" fill="none" fill-rule="evenodd">
        <g id="Desktop---Home" transform="translate(-443.000000, -4828.000000)">
            <g id="no-sugar" transform="translate(444.000000, 4829.000000)">
                <g id="Group" transform="translate(9.000000, 11.000000)" fill-rule="nonzero">
                    <path d="M36.5910714,15.9885 C36.8982143,15.9279375 37.1482143,15.8905313 37.3910714,15.8281875 C38.7035714,15.4861875 40.0053571,15.1085625 41.325,14.7950625 C43.4928571,14.2820625 45.65,14.3337187 47.7785714,15.0284062 C50.3714286,15.8745 52.975,16.693875 55.5535714,17.5791563 C56.5285714,17.9140312 57.4553571,18.39675 58.3964286,18.831375 C58.625,18.9364687 58.8446429,19.0914375 59.0267857,19.266 C59.5696429,19.7879063 59.9714286,20.3205 59.8946429,21.1950938 C59.7821429,22.465125 59.8660714,23.7529688 59.8625,25.0336875 C59.8571429,28.4145 59.8553571,31.7953125 59.8375,35.176125 C59.8321429,36.09525 59.8660714,37.0268437 59.7214286,37.9281563 C59.5,39.3175312 58.6892857,40.3257187 57.4303571,41.0115 C54.5392857,42.5879062 51.6875,44.2373438 48.7857143,45.7905937 C47.5357143,46.4603437 46.2267857,47.0445938 44.8946429,47.530875 C43.2803571,48.1204687 41.6107143,48.2487187 39.9839286,47.5005938 C39.2392857,47.1585937 38.5178571,46.7720625 37.7785714,46.4175937 C36.6839286,45.892125 35.5839286,45.3773437 34.4678571,44.8483125 C34.4678571,45.2330625 34.4535714,45.5839688 34.4696429,45.9330937 C34.5553571,47.6822812 34.2357143,49.3014375 32.9589286,50.6070938 C32.8035714,50.765625 32.5982143,50.8974375 32.3910714,50.9829375 C28.0660714,52.7641875 23.7428571,54.5472187 19.4089286,56.3035312 C17.9142857,56.9091562 16.3535714,57.2333437 14.7535714,56.8040625 C14.1071429,56.6312813 13.5035714,56.2928437 12.8928571,56.0025 C9.96785714,54.6095625 7.06964286,53.1578437 4.11785714,51.8219062 C1.71607143,50.7353437 0.603571429,48.83475 0.305357143,46.3445625 C0.223214286,45.6623437 0.239285714,44.965875 0.219642857,44.2765312 C0.1625,42.3456562 0.0696428571,40.413 0.0625,38.4803437 C0.0535714286,36.073875 0.1,33.6674062 0.1625,31.2627187 C0.176785714,30.7212188 0.319642857,30.1725937 0.467857143,29.6453437 C0.742857143,28.6763438 1.36607143,28.0030313 2.3125,27.6200625 C2.95,27.3617812 3.57321429,27.0660937 4.29285714,26.74725 C4.16071429,26.6492812 4.05535714,26.5851562 3.96607143,26.5032188 C3.13214286,25.7301562 2.65892857,24.8573438 2.72142857,23.6354062 C2.83214286,21.4765312 2.76607143,19.30875 2.80535714,17.1445312 C2.85,14.6864062 2.89285714,12.2282812 3.00892857,9.77371875 C3.09285714,7.9978125 3.74285714,6.46771875 5.28214286,5.407875 C5.64642857,5.15671875 5.91785714,4.7773125 6.25892857,4.48875 C7.10357143,3.77625 8.10892857,3.3451875 9.125,2.95153125 C11.5803571,2.00034375 14.1285714,1.36265625 16.6964286,0.80334375 C17.6732143,0.591375 18.6428571,0.34021875 19.6303571,0.1959375 C21.2678571,-0.04275 22.8732143,0.20484375 24.4642857,0.6305625 C27.3232143,1.39471875 30.1892857,2.13571875 32.9625,3.17953125 C33.3821429,3.3380625 33.7910714,3.52153125 34.2017857,3.7014375 C35.8392857,4.4210625 36.6767857,5.65190625 36.6428571,7.46165625 C36.6107143,9.15028125 36.6035714,10.8406875 36.5910714,12.5293125 C36.5857143,13.66575 36.5910714,14.8004062 36.5910714,15.9885 Z M1.86785714,42.714375 C1.85357143,42.714375 1.83928571,42.714375 1.825,42.7161562 C1.825,43.41975 1.80178571,44.125125 1.83214286,44.8287188 C1.85892857,45.464625 1.9,46.1076562 2.01071429,46.732875 C2.27857143,48.257625 2.97142857,49.4670937 4.46785714,50.1653437 C7.58928571,51.6241875 10.6803571,53.1489375 13.7857143,54.6380625 C14.2785714,54.8749688 14.775,55.1475 15.3,55.2704063 C16.5196429,55.5554062 17.6982143,55.2650625 18.8285714,54.8055 C23.0642857,53.0794687 27.2946429,51.34275 31.5214286,49.5953437 C31.7553571,49.4991562 31.9839286,49.3103437 32.1321429,49.1055 C32.7446429,48.2594062 32.9125,47.2832812 32.875,46.262625 C32.8446429,45.4307813 32.7875,44.6007187 32.7482143,43.768875 C32.5375,39.33 32.3214286,34.8929062 32.1285714,30.4540312 C32.0910714,29.6008125 31.6696429,29.034375 30.9571429,28.65675 C30.4839286,28.4055938 29.9857143,28.193625 29.4821429,28.0065937 C26.5607143,26.91825 23.5482143,26.1362812 20.5321429,25.3632187 C18.7446429,24.9054375 16.9714286,24.9820312 15.2017857,25.4255625 C13.7482143,25.7889375 12.2946429,26.1576562 10.85,26.5566562 C8.17321429,27.295875 5.44642857,27.8783437 2.925,29.1038437 C2.52142857,29.2997812 2.18392857,29.5384688 2.06607143,29.9730938 C1.93571429,30.45225 1.78928571,30.9420938 1.76785714,31.4319375 C1.69107143,33.2986875 1.61428571,35.169 1.63214286,37.0375312 C1.65357143,38.9292187 1.78571429,40.8226875 1.86785714,42.714375 Z M58.2392857,28.5944063 C58.2428571,28.5944063 58.2482143,28.5944063 58.2517857,28.5944063 C58.2517857,26.1238125 58.2428571,23.6532188 58.2625,21.182625 C58.2660714,20.7943125 58.1267857,20.5378125 57.8160714,20.3685938 C57.3232143,20.099625 56.8267857,19.8235313 56.3107143,19.6062188 C53.5910714,18.4626563 50.7660714,17.62725 47.9535714,16.7562188 C46.4839286,16.302 45.0035714,15.9047813 43.4607143,16.1042813 C42.3214286,16.252125 41.1875,16.4908125 40.0767857,16.7882813 C36.4571429,17.7590625 32.7607143,18.4644375 29.3071429,20.007 C28.5589286,20.3400938 28.1107143,20.805 28.0375,21.5727188 C27.9196429,22.8195938 27.8803571,24.0718125 27.7875,25.3204688 C27.7642857,25.6197188 27.8642857,25.7390625 28.1392857,25.8388125 C29.2464286,26.2395938 30.3625,26.6225625 31.4357143,27.0999375 C32.8767857,27.7394063 33.6928571,28.8455625 33.7446429,30.4718438 C33.7875,31.8540938 33.8839286,33.2327812 33.9464286,34.61325 C34.0660714,37.2334687 34.1857143,39.8536875 34.2892857,42.4739062 C34.3035714,42.8319375 34.4089286,43.0403437 34.7535714,43.2006562 C36.4982143,44.0075625 38.2285714,44.8429687 39.9625,45.6694687 C40.3321429,45.8458125 40.6821429,46.0720312 41.0660714,46.1985 C41.9839286,46.5030937 42.9178571,46.4247188 43.8375,46.18425 C45.425,45.771 46.8732143,45.01575 48.3017857,44.2409063 C51.15,42.6947812 53.9714286,41.0952187 56.8035714,39.5188125 C57.6339286,39.0574687 58.1321429,38.3503125 58.2410714,37.4187187 C58.3035714,36.879 58.2428571,36.3250312 58.2428571,35.7781875 C58.2375,33.3824063 58.2392857,30.9884063 58.2392857,28.5944063 Z M26.1964286,25.2189375 C26.1964286,24.86625 26.1875,24.5848125 26.1982143,24.3051562 C26.2392857,23.1028125 26.2267857,21.895125 26.5803571,20.7284062 C26.8267857,19.9161562 27.2446429,19.2250312 28.0375,18.8385 C28.6821429,18.5232187 29.3214286,18.1812187 29.9982143,17.9567812 C31.5285714,17.449125 33.0803571,17.0020312 34.6267857,16.5424687 C34.875,16.4694375 35.0125,16.3892812 35.0107143,16.08825 C35.0035714,14.6294062 35.0303571,13.1705625 35.0303571,11.7135 C35.0303571,10.1513437 35.0160714,8.5891875 35.0053571,7.0288125 C35,6.19875 34.5196429,5.6750625 33.8375,5.32059375 C33.3267857,5.05696875 32.7928571,4.83253125 32.2535714,4.63303125 C29.3660714,3.56428125 26.3910714,2.785875 23.4107143,2.030625 C22.0482143,1.6850625 20.6607143,1.55503125 19.2928571,1.8703125 C16.7232143,2.4616875 14.1714286,3.127875 11.6178571,3.78871875 C9.38214286,4.367625 7.41607143,5.42034375 5.76785714,7.07334375 C4.99464286,7.8481875 4.67142857,8.778 4.625,9.8004375 C4.51428571,12.2300625 4.45357143,14.6614687 4.40714286,17.092875 C4.36428571,19.3336875 4.3875,21.5745 4.33214286,23.8153125 C4.31785714,24.3710625 4.47857143,24.7967812 4.86964286,25.137 C5.23571429,25.4540625 5.63214286,25.7390625 6.0375,26.0026875 C6.16607143,26.0864062 6.38214286,26.1113437 6.53214286,26.0721562 C8.725,25.4985937 10.9089286,24.887625 13.1071429,24.3300937 C14.3339286,24.018375 15.5714286,23.719125 16.8232143,23.5374375 C17.6607143,23.4163125 18.5285714,23.5142812 19.4642857,23.5142812 C19.3767857,22.0215937 19.2660714,20.569875 19.2125,19.116375 C19.1714286,17.9656875 19.1857143,16.8132187 19.2107143,15.6625312 C19.2214286,15.183375 19.6,14.898375 20.0678571,14.9286562 C20.4946429,14.955375 20.7892857,15.2706562 20.8017857,15.7124062 C20.8785714,18.3094687 20.9589286,20.90475 21.0232143,23.5018125 C21.0303571,23.7814687 21.1375,23.8705312 21.3857143,23.932875 C22.4285714,24.1965 23.4678571,24.4779375 24.5071429,24.7575937 C25.0517857,24.8983125 25.5928571,25.0515 26.1964286,25.2189375 Z" id="Shape" fill="#403835"></path>
                    <path d="M1.86785714,42.714375 C1.78571429,40.8209063 1.65357143,38.9292188 1.63392857,37.03575 C1.61607143,35.1672188 1.69285714,33.2986875 1.76964286,31.4301563 C1.78928571,30.9403125 1.93571429,30.4504688 2.06785714,29.9713125 C2.1875,29.5366875 2.52321429,29.298 2.92678571,29.1020625 C5.44821429,27.8783438 8.175,27.295875 10.8517857,26.554875 C12.2964286,26.155875 13.75,25.7871563 15.2035714,25.4237813 C16.9732143,24.98025 18.7446429,24.9036563 20.5339286,25.3614375 C23.55,26.1345 26.5625,26.9164688 29.4839286,28.0048125 C29.9875,28.1918438 30.4839286,28.4055938 30.9589286,28.6549688 C31.6696429,29.0308125 32.0928571,29.59725 32.1303571,30.45225 C32.3232143,34.891125 32.5392857,39.3282188 32.75,43.7670938 C32.7892857,44.5989375 32.8446429,45.429 32.8767857,46.2608437 C32.9142857,47.2797188 32.7464286,48.257625 32.1339286,49.1037188 C31.9857143,49.3085625 31.7571429,49.497375 31.5232143,49.5935625 C27.2964286,51.3409688 23.0660714,53.0776875 18.8303571,54.8037188 C17.7,55.2650625 16.5214286,55.553625 15.3017857,55.268625 C14.7767857,55.1457187 14.2803571,54.8731875 13.7875,54.6362813 C10.6803571,53.1471562 7.58928571,51.6224062 4.46964286,50.1635625 C2.97321429,49.4635313 2.28035714,48.2558438 2.0125,46.7310937 C1.90178571,46.1040938 1.86071429,45.4628438 1.83392857,44.8269375 C1.80357143,44.1233437 1.82678571,43.4179688 1.82678571,42.714375 C1.83928571,42.7161562 1.85357143,42.7161562 1.86785714,42.714375 Z M15.1732143,48.0545625 C15.2696429,49.354875 15.3517857,50.6551875 15.4660714,51.9537188 C15.5071429,52.4115 15.8982143,52.6965 16.3196429,52.65375 C16.7607143,52.6074375 17.0714286,52.2351563 17.0482143,51.77025 C17.0375,51.5796563 17.0107143,51.3890625 16.9928571,51.1984688 C16.6928571,48.0331875 16.8446429,44.8892813 17.3767857,41.7560625 C17.5946429,40.4717813 17.775,39.1785938 17.9392857,37.8854063 C18,37.4080313 17.6428571,37.0090313 17.2357143,36.9947813 C16.775,36.97875 16.3928571,37.3332188 16.3321429,37.8034688 C16.2214286,38.6655938 16.1214286,39.5295 15.9714286,40.3845 C15.5303571,42.921 15.1946429,45.4664063 15.1732143,48.0545625 Z M18.3339286,36.4906875 C18.8839286,36.3642188 19.5214286,36.2235 20.1571429,36.073875 C23.1482143,35.3649375 26.1410714,34.6542188 29.0446429,33.6335625 C29.7392857,33.3895313 30.4089286,33.0493125 31.0482143,32.6805938 C31.4875,32.4276563 31.5446429,31.92 31.2803571,31.5459375 C31.0142857,31.1700938 30.5642857,31.1255625 30.1214286,31.3785 C29.7125,31.6118438 29.2946429,31.8594375 28.8482143,31.9930313 C26.5553571,32.6788125 24.2553571,33.3485625 21.9482143,33.9844688 C20.6767857,34.3335938 19.3839286,34.599 18.1,34.9071563 C17.6285714,35.0211563 17.3857143,35.361375 17.4464286,35.7995625 C17.5017857,36.2003438 17.8285714,36.4835625 18.3339286,36.4906875 Z M15.673263,34.990875 C15.6767857,34.6275 15.4839286,34.3549688 15.0696429,34.18575 C11.3857143,32.6948438 7.60357143,31.485375 3.81071429,30.3079688 C3.30535714,30.1512188 2.87142857,30.3845625 2.73928571,30.837 C2.60892857,31.2823125 2.83928571,31.670625 3.33571429,31.841625 C3.41964286,31.870125 3.50714286,31.8932813 3.59285714,31.92 C5.51785714,32.5434375 7.45,33.1437188 9.3625,33.7974375 C11.0946429,34.3905938 12.8071429,35.04075 14.5267857,35.66775 C15.0928571,35.874375 15.6678571,35.5359375 15.673263,34.990875 Z" id="Shape" fill="#FFFFFF"></path>
                    <path d="M58.2392857,28.5944062 C58.2392857,30.9884062 58.2392857,33.3841875 58.2392857,35.7781875 C58.2392857,36.3250312 58.3,36.879 58.2375,37.4187187 C58.1303571,38.3503125 57.6303571,39.0574687 56.8,39.5188125 C53.9678571,41.0952187 51.1464286,42.6947812 48.2982143,44.2409062 C46.8714286,45.01575 45.4232143,45.771 43.8339286,46.18425 C42.9142857,46.4229375 41.9803571,46.5030937 41.0625,46.1985 C40.6785714,46.07025 40.3267857,45.8440312 39.9589286,45.6694687 C38.225,44.8429687 36.4928571,44.0075625 34.75,43.2006562 C34.4053571,43.0403437 34.3,42.8319375 34.2857143,42.4739062 C34.1821429,39.8536875 34.0642857,37.2334687 33.9428571,34.61325 C33.8803571,33.2327812 33.7839286,31.8523125 33.7410714,30.4718437 C33.6892857,28.8455625 32.8714286,27.7394062 31.4321429,27.0999375 C30.3589286,26.6225625 29.2410714,26.2395937 28.1357143,25.8388125 C27.8607143,25.7390625 27.7625,25.6197187 27.7839286,25.3204687 C27.8785714,24.0718125 27.9160714,22.8178125 28.0339286,21.5727187 C28.1071429,20.805 28.5553571,20.3400937 29.3035714,20.007 C32.7571429,18.4662187 36.4535714,17.7590625 40.0732143,16.7882812 C41.1821429,16.4908125 42.3178571,16.252125 43.4571429,16.1042812 C45,15.9047812 46.4803571,16.3002187 47.95,16.7562187 C50.7642857,17.62725 53.5892857,18.4626562 56.3071429,19.6062187 C56.825,19.8235312 57.3196429,20.099625 57.8125,20.3685937 C58.1232143,20.5378125 58.2625,20.7943125 58.2589286,21.182625 C58.2392857,23.6532187 58.2482143,26.1238125 58.2482143,28.5944062 C58.2464286,28.5944062 58.2428571,28.5944062 58.2392857,28.5944062 Z M44.6214286,36.4140937 C44.5964286,36.4123125 44.5714286,36.4105312 44.5464286,36.40875 C44.5571429,36.1914375 44.5767857,35.974125 44.575,35.7568125 C44.5696429,34.8359062 44.6125,33.9132187 44.5392857,32.9976562 C44.4285714,31.6225312 44.2214286,30.25275 44.0821429,28.8794062 C44.0232143,28.3022812 43.7446429,27.9763125 43.2428571,28.0030312 C42.7642857,28.0279687 42.4464286,28.4198437 42.4839286,28.97025 C42.5232143,29.5580625 42.5785714,30.1440937 42.6428571,30.7283437 C42.7517857,31.70625 42.9642857,32.682375 42.9732143,33.6620625 C43.0017857,36.9662812 42.8232143,40.2615937 42.4589286,43.548 C42.3767857,44.289 42.6017857,44.70225 43.1196429,44.7610312 C43.6839286,44.823375 44,44.4938437 44.0607143,43.7243437 C44.2517857,41.2875937 44.4339286,38.8508437 44.6214286,36.4140937 Z M56.1910714,20.9884687 C56.1196429,21.0151875 55.9732143,21.0597187 55.8392857,21.125625 C54.6464286,21.7116562 53.4892857,22.3831875 52.2589286,22.8730312 C49.5946429,23.9346562 46.8946429,24.9036562 44.2089286,25.9100625 C43.6910714,26.1042187 43.4535714,26.540625 43.625,26.9859375 C43.7928571,27.424125 44.2267857,27.5915625 44.7464286,27.4205625 C44.8196429,27.395625 44.8928571,27.3706875 44.9642857,27.34575 C46.625,26.7419062 48.3017857,26.1754687 49.9428571,25.52175 C51.9053571,24.7397812 53.8428571,23.8954687 55.7803571,23.0511562 C56.1607143,22.8855 56.5089286,22.6236562 56.8339286,22.3600312 C57.1035714,22.1409375 57.1678571,21.81675 57.0303571,21.4872187 C56.8892857,21.1576875 56.6267857,20.9991562 56.1910714,20.9884687 Z M39.9892857,26.5744687 C39.9875,26.341125 39.7982143,26.0899687 39.4642857,25.942125 C39.0892857,25.7764687 38.7035714,25.63575 38.3357143,25.4558437 C35.6017857,24.1127812 32.8714286,22.7625937 30.1410714,21.4124062 C29.6392857,21.1648125 29.1660714,21.2627812 28.9464286,21.681375 C28.7089286,22.1284687 28.875,22.572 29.4089286,22.8391875 C31.8803571,24.075375 34.3535714,25.3133437 36.8339286,26.5335 C37.4982143,26.86125 38.1821429,27.1551562 38.8732143,27.4259062 C39.4535714,27.6539062 39.9767857,27.2976562 39.9892857,26.5744687 Z" id="Shape" fill="#FFFFFF"></path>
                    <path d="M26.1964286,25.2189375 C25.5928571,25.0515 25.0535714,24.8983125 24.5107143,24.75225 C23.4714286,24.4725938 22.4321429,24.1929375 21.3892857,23.9275313 C21.1428571,23.8651875 21.0339286,23.776125 21.0267857,23.4964688 C20.9625,20.8994063 20.8821429,18.304125 20.8053571,15.7070625 C20.7928571,15.2653125 20.4964286,14.9518125 20.0714286,14.9233125 C19.6053571,14.8930313 19.225,15.1780313 19.2142857,15.6571875 C19.1875,16.807875 19.175,17.962125 19.2160714,19.1110313 C19.2678571,20.5645313 19.3785714,22.01625 19.4678571,23.5089375 C18.5321429,23.5089375 17.6642857,23.4109688 16.8267857,23.5320938 C15.575,23.7137813 14.3375,24.0130313 13.1107143,24.32475 C10.9142857,24.8840625 8.73035714,25.49325 6.53571429,26.0668125 C6.38392857,26.106 6.16785714,26.0810625 6.04107143,25.9973438 C5.63571429,25.7337188 5.2375,25.4487188 4.87321429,25.1316563 C4.48214286,24.7914375 4.32142857,24.3675 4.33571429,23.8099688 C4.39107143,21.5709375 4.36785714,19.3283438 4.41071429,17.0875313 C4.45714286,14.656125 4.51785714,12.2229375 4.62857143,9.79509375 C4.675,8.77265625 4.99821429,7.844625 5.77142857,7.068 C7.41785714,5.415 9.38571429,4.36228125 11.6214286,3.783375 C14.175,3.12253125 16.7267857,2.45634375 19.2964286,1.86496875 C20.6625,1.5496875 22.05,1.67971875 23.4142857,2.02528125 C26.3910714,2.78409375 29.3642857,3.5625 32.2517857,4.63125 C32.7910714,4.83075 33.325,5.0551875 33.8357143,5.3188125 C34.5196429,5.67328125 34.9982143,6.19696875 35.0035714,7.02703125 C35.0142857,8.5891875 35.0285714,10.1513438 35.0285714,11.7117188 C35.0285714,13.1705625 35.0017857,14.6294063 35.0089286,16.0864688 C35.0107143,16.3892813 34.8714286,16.4676563 34.625,16.5406875 C33.0785714,17.00025 31.5267857,17.4473438 29.9964286,17.955 C29.3196429,18.1794375 28.6803571,18.5214375 28.0357143,18.8367188 C27.2428571,19.22325 26.825,19.914375 26.5785714,20.726625 C26.225,21.895125 26.2375,23.1028125 26.1964286,24.303375 C26.1875,24.5865938 26.1964286,24.86625 26.1964286,25.2189375 Z M33.9214286,7.488375 C33.8285714,7.06265625 33.6089286,6.76875 33.2446429,6.67434375 C32.8821429,6.5799375 32.6125,6.7153125 32.3660714,6.99496875 C32.0821429,7.317375 31.7982143,7.6771875 31.4339286,7.88203125 C30.5785714,8.36475 29.6964286,8.81896875 28.7857143,9.1876875 C26.2767857,10.2047813 23.6696429,10.9172813 21.0392857,11.5514063 C20.5071429,11.6796563 20.2214286,12.1071563 20.3446429,12.5631563 C20.4660714,13.0120313 20.8892857,13.23825 21.4107143,13.1117813 C24.6375,12.3280313 27.8321429,11.4445313 30.8589286,10.0498125 C31.7696429,9.63121875 32.6589286,9.16096875 33.3339286,8.3968125 C33.5714286,8.13140625 33.7285714,7.79296875 33.9214286,7.488375 Z M6.5375,8.33446875 C6,8.386125 5.64642857,8.66221875 5.6125,9.1164375 C5.575,9.6045 5.87857143,9.93759375 6.41071429,10.0088438 C7.57857143,10.1638125 8.75357143,10.2795938 9.91071429,10.4933438 C12.6714286,11.0027813 15.4232143,11.5531875 17.8767857,13.031625 C18.3,13.2863438 18.7464286,13.1616563 18.9785714,12.7769063 C19.2196429,12.376125 19.1142857,11.8951875 18.6803571,11.6529375 C18.0571429,11.3055938 17.425,10.9635938 16.7696429,10.6839375 C15.1017857,9.97321875 13.3553571,9.50475 11.5767857,9.17521875 C9.90357143,8.86528125 8.21785714,8.61234375 6.5375,8.33446875 Z" id="Shape" fill="#FFFFFF"></path>
                    <path d="M15.1732143,48.0545625 C15.1946429,45.4681875 15.5321429,42.9227813 15.9732143,40.3845 C16.1214286,39.5295 16.2214286,38.6655937 16.3339286,37.8034688 C16.3946429,37.3332187 16.7767857,36.97875 17.2375,36.9947813 C17.6446429,37.0090312 18.0017857,37.40625 17.9410714,37.8854063 C17.7767857,39.1785937 17.5964286,40.47 17.3785714,41.7560625 C16.8464286,44.8892812 16.6946429,48.0331875 16.9946429,51.1984688 C17.0125,51.3890625 17.0392857,51.5796562 17.05,51.77025 C17.075,52.2351563 16.7642857,52.6074375 16.3214286,52.65375 C15.9,52.6965 15.5089286,52.4115 15.4678571,51.9537188 C15.3517857,50.6551875 15.2678571,49.3530937 15.1732143,48.0545625 Z" id="Path" fill="#575757"></path>
                    <path d="M18.3339286,36.4906875 C17.8285714,36.4835625 17.5017857,36.2003438 17.4464286,35.7977813 C17.3857143,35.3595938 17.6285714,35.019375 18.1,34.905375 C19.3821429,34.5972188 20.6767857,34.3318125 21.9482143,33.9826875 C24.2571429,33.3485625 26.5553571,32.6770313 28.8482143,31.99125 C29.2946429,31.8576563 29.7125,31.6100625 30.1214286,31.3767188 C30.5642857,31.1237813 31.0142857,31.1683125 31.2803571,31.5441563 C31.5464286,31.92 31.4892857,32.4276563 31.0482143,32.6788125 C30.4071429,33.04575 29.7392857,33.3859688 29.0446429,33.6317813 C26.1410714,34.6524375 23.1482143,35.3631563 20.1571429,36.0720938 C19.5214286,36.2252813 18.8839286,36.366 18.3339286,36.4906875 Z" id="Path" fill="#575757"></path>
                    <path d="M15.673263,34.990875 C15.6678571,35.5359375 15.0928571,35.874375 14.5267857,35.66775 C12.8071429,35.04075 11.0946429,34.3905937 9.3625,33.7974375 C7.44821429,33.1437187 5.51607143,32.5434375 3.59285714,31.92 C3.50714286,31.8915 3.41964286,31.870125 3.33571429,31.841625 C2.84107143,31.670625 2.61071429,31.2823125 2.73928571,30.837 C2.87142857,30.3845625 3.30535714,30.1494375 3.81071429,30.3079688 C7.60357143,31.4871562 11.3857143,32.6948437 15.0696429,34.18575 C15.4839286,34.3549687 15.6767857,34.6275 15.673263,34.990875 Z" id="Path" fill="#575757"></path>
                    <path d="M44.6214286,36.4140938 C44.4357143,38.8508438 44.2517857,41.2858125 44.0589286,43.7207812 C43.9982143,44.4885 43.6821429,44.8198125 43.1178571,44.7574687 C42.6,44.7004687 42.375,44.2854375 42.4571429,43.5444375 C42.8232143,40.2598125 43.0017857,36.9627188 42.9714286,33.6585 C42.9625,32.6805937 42.75,31.7044688 42.6410714,30.7247813 C42.5767857,30.1405313 42.5214286,29.5527188 42.4821429,28.9666875 C42.4446429,28.4162813 42.7625,28.0261875 43.2410714,27.9994688 C43.7428571,27.97275 44.0214286,28.3005 44.0803571,28.8758438 C44.2214286,30.2491875 44.4267857,31.6171875 44.5375,32.9940937 C44.6107143,33.9096563 44.5696429,34.8323438 44.5732143,35.75325 C44.575,35.9705625 44.5553571,36.187875 44.5446429,36.4051875 C44.5696429,36.4105313 44.5946429,36.4123125 44.6214286,36.4140938 Z" id="Path" fill="#575757"></path>
                    <path d="M56.1910714,20.9884687 C56.6285714,20.997375 56.8910714,21.1576875 57.0267857,21.4854375 C57.1642857,21.8149687 57.1,22.1409375 56.8303571,22.35825 C56.5053571,22.621875 56.1571429,22.8837187 55.7767857,23.049375 C53.8392857,23.8936875 51.9017857,24.738 49.9392857,25.5199688 C48.2982143,26.1736875 46.6214286,26.740125 44.9607143,27.3439688 C44.8892857,27.3706875 44.8160714,27.395625 44.7428571,27.4187813 C44.225,27.5915625 43.7892857,27.4223437 43.6214286,26.9841563 C43.45,26.5388438 43.6875,26.1024375 44.2053571,25.9082812 C46.8910714,24.901875 49.5928571,23.932875 52.2553571,22.87125 C53.4857143,22.3814062 54.6428571,21.709875 55.8357143,21.1238437 C55.9732143,21.0597187 56.1178571,21.0169688 56.1910714,20.9884687 Z" id="Path" fill="#575757"></path>
                    <path d="M39.9892857,26.5744688 C39.9767857,27.2976563 39.4535714,27.652125 38.8732143,27.4259063 C38.1821429,27.1551563 37.5,26.86125 36.8339286,26.5335 C34.3535714,25.3115625 31.8821429,24.075375 29.4089286,22.8391875 C28.875,22.572 28.7089286,22.13025 28.9464286,21.681375 C29.1678571,21.2645625 29.6410714,21.1648125 30.1410714,21.4124063 C32.8714286,22.7625938 35.6017857,24.1127813 38.3357143,25.4558438 C38.7017857,25.63575 39.0892857,25.7764688 39.4642857,25.942125 C39.7982143,26.0899688 39.9875,26.341125 39.9892857,26.5744688 Z" id="Path" fill="#575757"></path>
                    <path d="M33.9214286,7.488375 C33.7285714,7.79296875 33.5714286,8.13140625 33.3357143,8.39859375 C32.6607143,9.16275 31.7696429,9.633 30.8607143,10.0515938 C27.8339286,11.4445313 24.6392857,12.3298125 21.4125,13.1135625 C20.8910714,13.2400313 20.4678571,13.0120313 20.3464286,12.5649375 C20.2232143,12.1089375 20.5089286,11.6832188 21.0410714,11.5531875 C23.6696429,10.9172813 26.2767857,10.2047813 28.7875,9.18946875 C29.6982143,8.82075 30.5785714,8.36653125 31.4357143,7.8838125 C31.7982143,7.67896875 32.0839286,7.31915625 32.3678571,6.99675 C32.6142857,6.71709375 32.8839286,6.58171875 33.2464286,6.676125 C33.6089286,6.76875 33.8285714,7.06265625 33.9214286,7.488375 Z" id="Path" fill="#575757"></path>
                    <path d="M6.5375,8.33446875 C8.21785714,8.61234375 9.90178571,8.8635 11.5767857,9.1734375 C13.3553571,9.50296875 15.1017857,9.9714375 16.7696429,10.6821563 C17.425,10.9618125 18.0571429,11.3055937 18.6803571,11.6511562 C19.1160714,11.8934063 19.2214286,12.3743438 18.9785714,12.775125 C18.7464286,13.159875 18.3,13.2845625 17.8767857,13.0298438 C15.4232143,11.5514062 12.6714286,11.001 9.91071429,10.4915625 C8.75357143,10.2778125 7.57857143,10.1638125 6.41071429,10.0070625 C5.87857143,9.9358125 5.575,9.60271875 5.6125,9.11465625 C5.64821429,8.66221875 6.00178571,8.386125 6.5375,8.33446875 Z" id="Path" fill="#575757"></path>
                </g>
                <line x1="4" y1="7" x2="67" y2="70" id="Path"></line>
                <line x1="0" y1="0" x2="69" y2="70" id="Path" stroke="#403835" stroke-width="2" fill-rule="nonzero"></line>
            </g>
        </g>
    </g>
</svg>