<?xml version="1.0" encoding="UTF-8"?>
<svg width="60px" height="68px" viewBox="0 0 60 68" version="1.1" xmlns="http://www.w3.org/2000/svg" xmlns:xlink="http://www.w3.org/1999/xlink">
    <title>satisfaction</title>
    <g id="-" stroke="none" stroke-width="1" fill="none" fill-rule="evenodd">
        <g id="Desktop---Home" transform="translate(-1168.000000, -4840.000000)" fill="#403835" fill-rule="nonzero">
            <g id="satisfaction" transform="translate(1168.000000, 4840.000000)">
                <path d="M2.12968249,46.6680114 C7.39827806,54.4463725 20.3864577,57.6319185 28.4932569,51.6275695 C22.7632988,43.4696721 10.7431566,41.1668679 2.12968249,46.6680114 M31.3067446,51.584925 C39.5453616,57.3504646 53.5510105,54.5700417 57.6414838,46.52302 C48.8572612,41.2642329 37.682007,43.412273 31.3067446,51.584925 M0,46.2714174 C8.79060433,39.3288889 19.9333338,40.9195296 30.070952,50.4207295 C39.0139708,41.0005542 52.1463263,39.1924264 59.8288366,46.3268552 C54.6879396,55.2822052 42.1158101,58.9197831 32.4271965,54.1521253 C30.73828,53.3205571 29.4448171,53.2096813 27.6611566,54.0753652 C17.7336231,58.881403 5.47044168,55.4016099 0,46.2714174" id="Shape"></path>
                <path d="M29.828776,2.76436503 C25.8553082,7.53218642 25.2399301,18.0472967 29.514974,22.3618108 C32.9423447,15.7686181 33.0686806,8.00977803 29.828776,2.76436503 M29.828776,0 C34.1608748,5.70681507 34.1731009,11.5674308 32.8852898,17.6304159 C32.695148,18.4667055 32.4597952,19.2922186 32.1802539,20.1033691 C30.5501133,25.1221285 30.5215858,25.1504602 34.8373832,28.457175 C40.6366086,32.9093002 47.3690895,35.3863008 54.2971873,37.4423732 C55.3901751,37.6854033 56.3842056,38.249523 57.1499335,39.0613278 C56.6242131,39.1341808 56.0455132,39.3810714 55.5727724,39.2556024 C47.2631304,37.0619189 39.2713658,34.1518479 32.5877891,28.530028 C24.3311267,21.5766178 22.6765339,11.1869765 28.3086699,1.97917203 C28.782294,1.29397982 29.291024,0.633386494 29.8328514,0" id="Shape"></path>
                <path d="M27.681999,28.5749667 C25.9040352,34.4089006 7.85959423,41.6244533 1.78593542,38.5615407 C6.52717219,37.5379752 11.4029121,37.0631654 15.7364362,35.3896554 C20.0699602,33.7161453 23.7940167,30.8595026 27.681999,28.5749667" id="Path"></path>
                <path d="M31.2538699,67.5036528 C31.1275476,67.6312267 30.9184625,67.8863744 30.8966828,67.8641877 C30.7058097,67.6292945 30.5268553,67.3791892 30.3609022,67.1153844 C30.5482076,67.0654642 30.7572927,66.926797 30.9184625,66.9878106 C31.0796323,67.0488241 31.1449714,67.3261587 31.2538699,67.5036528" id="Path"></path>
            </g>
        </g>
    </g>
</svg>