<?xml version="1.0" encoding="UTF-8"?>
<svg width="21px" height="20px" viewBox="0 0 21 20" version="1.1" xmlns="http://www.w3.org/2000/svg" xmlns:xlink="http://www.w3.org/1999/xlink">
    <title>search</title>
    <g id="-" stroke="none" stroke-width="1" fill="none" fill-rule="evenodd">
        <g id="Desktop---Home" transform="translate(-1217.000000, -41.000000)" fill="#716763" fill-rule="nonzero">
            <g id="search" transform="translate(1217.000000, 41.000000)">
                <path d="M8.38709677,16.1290323 C10.1917099,16.1306334 11.9441576,15.5237546 13.3612903,14.4064516 L18.7096774,19.7548387 L20.0774194,18.3870968 L14.7290323,13.0387097 C17.0461266,10.0817831 17.0146705,5.91661428 14.6531806,2.99502113 C12.2916907,0.0734279877 8.2257088,-0.830680273 4.84866659,0.81489777 C1.47162438,2.46047581 -0.321923674,6.21983824 0.523790695,9.8800443 C1.36950506,13.5402504 4.63045814,16.1317375 8.38709677,16.1290323 L8.38709677,16.1290323 Z M8.38709677,1.93548387 C11.7720678,1.93548387 14.516129,4.67954508 14.516129,8.06451613 C14.516129,11.4494872 11.7720678,14.1935484 8.38709677,14.1935484 C5.00212573,14.1935484 2.25806452,11.4494872 2.25806452,8.06451613 C2.25806452,4.67954508 5.00212573,1.93548387 8.38709677,1.93548387 Z" id="Shape"></path>
            </g>
        </g>
    </g>
</svg>