<?xml version="1.0" encoding="UTF-8"?>
<svg width="84px" height="84px" viewBox="0 0 84 84" version="1.1" xmlns="http://www.w3.org/2000/svg" xmlns:xlink="http://www.w3.org/1999/xlink">
    <title>sustainable-icon</title>
    <g id="-" stroke="none" stroke-width="1" fill="none" fill-rule="evenodd" stroke-linecap="round">
        <g id="Desktop---Home" transform="translate(-846.000000, -4090.000000)" stroke="#7D756F" stroke-width="2">
            <g id="sustainable-icon" transform="translate(847.000000, 4091.000000)">
                <path d="M82,41 C82,63.6435679 63.6435679,82 41,82 C18.3564321,82 0,63.6435679 0,41 C0,18.3564321 18.3564321,0 41,0 C63.6435679,0 82,18.3564321 82,41 Z" id="Stroke-1"></path>
                <path d="M23,15.9981525 C27.0781136,6.26853263 33.4775112,0 40.6736263,0 C50.7163187,0 59.2087878,12.2102443 62,29" id="Stroke-3"></path>
                <path d="M61,57.9264153 C57.7497042,73.0442478 50.1397141,82 40.7702664,82 C29.9757923,82 20.9824118,67.8036126 19,49" id="Stroke-5"></path>
                <path d="M10,68 C10,68 37.6387482,52.25 72,68" id="Stroke-7"></path>
                <path d="M13,15.939 C11.6867697,15.664 10.3539389,15.372 9,15.061" id="Stroke-9"></path>
                <path d="M72,14 C72,14 61.7405716,22.603723 38,20.7341459" id="Stroke-11"></path>
                <line x1="72" y1="41.536" x2="82" y2="41.464" id="Stroke-13"></line>
                <line x1="0" y1="41.55" x2="14" y2="41.45" id="Stroke-15"></line>
                <path d="M41.034896,82 L41.034896,61.0539084 C41.034896,61.0539084 40.2611958,54.0727763 46,50" id="Stroke-17"></path>
                <path d="M40.0970281,48 C40.0970281,48 41.2480281,54.7260256 40.7990281,58" id="Stroke-19"></path>
                <path d="M45.4087744,49.9990975 C45.3392104,50.1165335 42.7452773,38.7414366 51.5544828,34.3504089 C53.3872256,33.4365677 55.4286604,33.0262165 57.4727706,33.0005695 C59.8807539,32.9695232 63.7174739,34.2194745 66.0706087,33.8968629 C66.762235,33.8023741 67.2411561,34.5582842 66.871932,35.1535634 C65.0445403,38.0989131 60.7369257,44.1043487 54.9390371,46.1628538 C47.1425223,48.9300247 45.5532534,49.7561264 45.4087744,49.9990975 Z" id="Stroke-21"></path>
                <path d="M46.0606241,50.4453958 C46.8941419,51.4396325 51.8761813,56.6866283 60.8187921,52.2316071 C60.8256019,52.2276669 60.8269639,52.2276669 60.8337737,52.2237268 C60.9917607,52.1344162 66.8481766,48.7209138 67.9990304,35.2665396 C68.0208217,35.0130552 67.6694368,34.8961634 67.5359649,35.1154996 C66.8127657,36.2975512 65.3908824,38.4396915 63.3751858,40.6278004 C60.5858974,43.6564793 56.9848827,45.8787363 53.0052438,47.1763663 C50.3984577,48.0274435 46.9418104,49.2699111 46.0619861,50.1406891 C45.9761828,50.2247461 45.9829925,50.3547718 46.0606241,50.4453958 Z" id="Stroke-23"></path>
                <path d="M16.4371497,17.1096394 C16.4490036,16.9861601 16.6202261,16.9566325 16.6571048,17.0747431 C17.3327751,19.2530777 20.2409234,27.3798901 27.0160661,31.2050619 C34.8817643,35.648972 39.0516908,42.3114817 40,49.8437148 C40,49.8437148 25.8794121,56.3142948 18.1085448,38.6420012 C18.0137138,37.9736027 14.8698053,32.7821064 16.4371497,17.1096394 Z" id="Stroke-25"></path>
                <path d="M17.0172772,18.2810444 C16.9430493,18.1110797 17.1219917,17.9384799 17.2876791,18.0214859 C18.7589834,18.7606347 23.5944051,20.9886215 32.5322473,23.3101547 C43.4543621,26.1494874 47.8218825,36.1391952 40.0902447,47.9813864 C40.0756642,48.0051024 40.0372247,48.0077375 40.0332482,47.9800688 C39.9258828,47.1539613 38.7939063,39.6070019 32.9855681,34.2366447 C32.9855681,34.2366447 30.7931921,32.2695339 26.7265601,29.9941151 C22.8017565,27.7977497 19.1340997,23.0835351 17.0172772,18.2810444 Z" id="Stroke-27"></path>
                <line x1="40.5" y1="0" x2="40.5" y2="21" id="Stroke-29"></line>
            </g>
        </g>
    </g>
</svg>