<?xml version="1.0" encoding="UTF-8"?>
<svg width="62px" height="62px" viewBox="0 0 62 62" version="1.1" xmlns="http://www.w3.org/2000/svg" xmlns:xlink="http://www.w3.org/1999/xlink">
    <title>sustain</title>
    <g id="-" stroke="none" stroke-width="1" fill="none" fill-rule="evenodd" stroke-linecap="round">
        <g id="Desktop---Home" transform="translate(-928.000000, -4838.000000)" stroke="#403835" stroke-width="1.6">
            <g id="sustain" transform="translate(929.000000, 4839.000000)">
                <path d="M60,30 C60,46.5684643 46.5684643,60 30,60 C13.4315357,60 0,46.5684643 0,30 C0,13.4315357 13.4315357,0 30,0 C46.5684643,0 60,13.4315357 60,30 Z" id="Stroke-1"></path>
                <path d="M16.8292683,11.7059653 C19.8132539,4.58673119 24.4957399,0 29.7611899,0 C37.1095015,0 43.3235033,8.93432512 45.3658537,21.2195122" id="Stroke-3"></path>
                <path d="M44.6341463,42.3851819 C42.2558811,53.4470106 36.6875957,60 29.8319022,60 C21.9335065,60 15.3529843,49.6123994 13.902439,35.8536585" id="Stroke-5"></path>
                <path d="M7.31707317,49.7560976 C7.31707317,49.7560976 27.5405475,38.2317073 52.6829268,49.7560976" id="Stroke-7"></path>
                <path d="M9.51219512,11.6626829 C8.5512949,11.4614634 7.57605288,11.2478049 6.58536585,11.0202439" id="Stroke-9"></path>
                <path d="M52.6829268,10.2439024 C52.6829268,10.2439024 45.176028,16.5393095 27.804878,15.1713263" id="Stroke-11"></path>
                <line x1="52.6829268" y1="30.3921951" x2="60" y2="30.3395122" id="Stroke-13"></line>
                <line x1="0" y1="30.402439" x2="10.2439024" y2="30.3292683" id="Stroke-15"></line>
                <path d="M30.0255336,60 L30.0255336,44.6735915 C30.0255336,44.6735915 29.4594115,39.5654461 33.6585366,36.5853659" id="Stroke-17"></path>
                <path d="M29.3392888,35.1219512 C29.3392888,35.1219512 30.181484,40.0434334 29.8529474,42.4390244" id="Stroke-19"></path>
                <path d="M33.2259325,36.5847055 C33.175032,36.6706343 31.2770322,28.3473927 37.7227923,25.1344456 C39.0638236,24.4657812 40.5575564,24.1655242 42.0532468,24.1467582 C43.8151858,24.1240414 46.6225419,25.0386399 48.3443478,24.8025826 C48.8504159,24.7334445 49.200846,25.2865494 48.930682,25.7221196 C47.5935661,27.8772535 44.441653,32.2714747 40.1992954,33.7776979 C34.4945285,35.8024571 33.3316488,36.4069218 33.2259325,36.5847055 Z" id="Stroke-21"></path>
                <path d="M33.7028957,36.9112652 C34.3127868,37.6387555 37.9581814,41.4780207 44.5015552,38.2182491 C44.506538,38.2153661 44.5075345,38.2153661 44.5125173,38.212483 C44.6281176,38.1471338 48.9132999,35.6494491 49.7553881,25.804785 C49.771333,25.6193086 49.514222,25.5337781 49.4165597,25.694268 C48.8873895,26.5591838 47.8469871,28.1266035 46.3720871,29.7276588 C44.3311445,31.9437653 41.6962556,33.5698071 38.7843247,34.5192924 C36.8769203,35.1420318 34.3476661,36.0511545 33.7038922,36.6883091 C33.6411093,36.7498143 33.6460921,36.844955 33.7028957,36.9112652 Z" id="Stroke-23"></path>
                <path d="M12.0271827,12.5192483 C12.0358563,12.4288977 12.161141,12.4072921 12.1881255,12.4937144 C12.6825184,14.0876179 14.8104318,20.0340659 19.7678532,22.8329721 C25.5232422,26.0846137 28.5744079,30.9596208 29.2682927,36.4710108 C29.2682927,36.4710108 18.9361552,41.2055816 13.2501547,28.274635 C13.1807662,27.785563 10.8803453,23.9869071 12.0271827,12.5192483 Z" id="Stroke-25"></path>
                <path d="M12.4516663,13.376374 C12.3973531,13.2520095 12.5282866,13.125717 12.6495213,13.1864531 C13.7260854,13.7272937 17.2641988,15.3575279 23.8040834,17.0562108 C31.7958747,19.1337713 34.9916213,26.4433135 29.3343254,35.1083315 C29.3236567,35.1256847 29.2955303,35.1276128 29.2926206,35.1073674 C29.2140606,34.5028985 28.3857851,28.9807331 24.1357815,25.0512034 C24.1357815,25.0512034 22.531604,23.6118541 19.5560196,21.9469135 C16.684212,20.3398168 14.0005608,16.8903916 12.4516663,13.376374 Z" id="Stroke-27"></path>
                <line x1="29.6341463" y1="0" x2="29.6341463" y2="15.3658537" id="Stroke-29"></line>
            </g>
        </g>
    </g>
</svg>