<?xml version="1.0" encoding="UTF-8"?>
<svg width="17px" height="23px" viewBox="0 0 17 23" version="1.1" xmlns="http://www.w3.org/2000/svg" xmlns:xlink="http://www.w3.org/1999/xlink">
    <title>user</title>
    <g id="-" stroke="none" stroke-width="1" fill="none" fill-rule="evenodd">
        <g id="Desktop---Home" transform="translate(-1261.000000, -40.000000)" fill="#716763" fill-rule="nonzero">
            <g id="Group" transform="translate(1261.000000, 40.000000)">
                <path d="M8.44097222,10.1224303 C7.28387446,10.1256173 6.16932441,9.67992651 5.32548611,8.8765625 C3.79016349,7.44228727 3.39755437,5.13953294 4.36878132,3.26524074 C5.34000826,1.39094854 7.43215575,0.413901467 9.46689906,0.884385171 C11.5016424,1.35486887 12.9700677,3.15520972 13.0451389,5.27143229 C13.0928557,6.5107346 12.6529751,7.71843041 11.8224381,8.62836758 C10.991901,9.53830475 9.83887548,10.0757985 8.61746528,10.1224303 L8.44097222,10.1224303 Z M8.44097222,2.33593547 L8.31819444,2.33593547 C6.62503511,2.40603654 5.30818858,3.85514937 5.37636866,5.57324524 C5.44454875,7.29134112 6.87195742,8.62832571 8.56518948,8.56005931 C10.2584215,8.4917929 11.5767906,7.0441062 11.5104167,5.3259375 C11.4444814,3.65463988 10.0893668,2.33459888 8.44097222,2.33593547 Z" id="Shape"></path>
                <path d="M0.675277778,21.045599 L1.25847222,19.6128906 C5.86373767,21.5129556 11.0182068,21.5129556 15.6234722,19.6128906 L16.2066667,21.045599 C13.7451492,22.0809728 11.105586,22.610297 8.44097222,22.6028906 C5.77635842,22.610297 3.13679525,22.0809728 0.675277778,21.045599 Z" id="Path"></path>
                <path d="M15.9150694,21.1078906 C15.8293318,21.106365 15.7441751,21.0932728 15.6618403,21.0689583 C15.4677795,21.0018118 15.3082714,20.8586543 15.2188917,20.6714149 C15.129512,20.4841754 15.117695,20.268428 15.1860764,20.0722917 C15.2941422,19.7622575 15.3486578,19.4356223 15.3472222,19.1067708 L15.3472222,15.5729167 C15.3472222,13.8527798 13.9729851,12.4583333 12.2777778,12.4583333 L4.60416667,12.4583333 C2.90895931,12.4583333 1.53472222,13.8527798 1.53472222,15.5729167 L1.53472222,19.1067708 C1.53328669,19.4356223 1.58780225,19.7622575 1.69586806,20.0722917 C1.83572266,20.4808242 1.62271591,20.927047 1.22010417,21.0689583 C0.817492419,21.2108696 0.377736551,20.9947304 0.237881944,20.5861979 C0.0812781996,20.1090998 0.000967720839,19.6096357 0,19.1067708 L0,15.5729167 C0,12.9927114 2.06135563,10.9010417 4.60416667,10.9010417 L12.2777778,10.9010417 C14.8205888,10.9010417 16.8819444,12.9927114 16.8819444,15.5729167 C16.8819444,15.0606825 16.8819444,14.9959513 16.8819444,15.3787231 C16.8819444,16.2071782 16.8819444,17.4498607 16.8819444,19.1067708 C16.8809767,19.6096357 16.8006662,20.1090998 16.6440625,20.5861979 C16.5358646,20.9002742 16.242954,21.1098911 15.9150694,21.1078906 Z" id="Path"></path>
            </g>
        </g>
    </g>
</svg>